<?xml version="1.0" encoding="utf-8"?>
<!-- Generator: Adobe Illustrator 21.0.2, SVG Export Plug-In . SVG Version: 6.00 Build 0)  -->
<svg version="1.1" id="Layer_1" xmlns="http://www.w3.org/2000/svg" xmlns:xlink="http://www.w3.org/1999/xlink" x="0px" y="0px"
	 viewBox="0 0 100 100" style="enable-background:new 0 0 100 100;" xml:space="preserve">
<style type="text/css">
	.st0{fill-rule:evenodd;clip-rule:evenodd;fill:#FFFFFF;}
</style>
<g>
	<g>
		<path class="st0" d="M25,52.5c1.3,0,1.7,0,3,0c0-1,0-2,0-3c-1,0-2,0-3,0V52.5z M31,67.5c0-1,0-2,0-3c-1,0-2,0-3,0c0-1,0-2,0-3
			c-1.3,0-1.7,0-3,0v3c0.7,0,1.3,0,2,0c0,1,0,2,0,3c-0.7,0-1.3,0-2,0v3c1,0,2,0,3,0c0-1,0-2,0-3C29,67.5,30,67.5,31,67.5z
			 M82.2,39.5l8.8,10h-8l-8.8-10h-8l8.8,10h-8l-8.8-10h-9l8.8,10h-8l-8.8-10h-8l8.8,10h-8l-8.7-9.8L25,39.8v6.7c1,0,2,0,3,0
			c0,1,0,2,0,3c1,0,2,0,3,0c0,1,0,2,0,3c1,0,2,0,3,0c0,1,0,2,0,3c1,0,2,0,3,0c0,1,0,2,0,3c-1,0-2,0-3,0c0,1,0,2,0,3c-1,0-2,0-3,0
			c0,1,0,2,0,3c1,0,2,0,3,0c0,1,0,2,0,3c-1,0-2,0-3,0c0,1,0,2,0,3c1,0,2,0,3,0c0,1,0,2,0,3c-1,0-2,0-3,0c0,1,0,2,0,3c1,0,2,0,3,0
			c0,1,0,2,0,3c-1,0-2,0-3,0c0-1,0-2,0-3c-1,0-2,0-3,0c0,1.7,0,3.3,0,5h64v-42H82.2z M40,64.5c-1,0-2,0-3,0c0-1,0-2,0-3c1,0,2,0,3,0
			C40,62.5,40,63.5,40,64.5z M54,74.5v-20l20,10L54,74.5z M28,70.5c0,1,0,2,0,3c1,0,2,0,3,0c0-1,0-2,0-3C30,70.5,29,70.5,28,70.5z
			 M19,65.5c1,0,2,0,3,0c0-1,0-2,0-3c-1,0-2,0-3,0C19,63.5,19,64.5,19,65.5z M24,64.5c0,1,0,2,0,3c0.3,0,0.7,0,1,0v-3
			C24.7,64.5,24.3,64.5,24,64.5z M18,26.5c-1,0-2,0-3,0c0,1,0,2,0,3c1,0,2,0,3,0C18,28.5,18,27.5,18,26.5z M6,30.5c1,0,2,0,3,0
			c0-1,0-2,0-3c-1,0-2,0-3,0C6,28.5,6,29.5,6,30.5z M10,33.5c0,1,0,2,0,3c1,0,2,0,3,0c0-1,0-2,0-3C12,33.5,11,33.5,10,33.5z
			 M13,36.5c0,1,0,2,0,3c1,0,2,0,3,0c0-1,0-2,0-3C15,36.5,14,36.5,13,36.5z M21,36.5c0,1,0,2,0,3c1,0,2,0,3,0c0-0.8,0-1.5,0-2.3
			l-0.2-0.7C22.9,36.5,21.9,36.5,21,36.5z M6,37.5c-1,0-2,0-3,0c0,1.7,0,3.3,0,5c1,0,2,0,3,0C6,40.8,6,39.2,6,37.5z M20,42.5
			c0-1,0-2,0-3c-1.3,0-2.7,0-4,0c0,1,0,2,0,3C17.3,42.5,18.7,42.5,20,42.5z M13,45.5c1,0,2,0,3,0c0-1,0-2,0-3c-1,0-2,0-3,0
			C13,43.5,13,44.5,13,45.5z M24,42.5c-1,0-2,0-3,0c0,1,0,2,0,3c1,0,2,0,3,0C24,44.5,24,43.5,24,42.5z M20,45.5c-1,0-2,0-3,0
			c0,1,0,2,0,3c1,0,2,0,3,0C20,47.5,20,46.5,20,45.5z M5,49.5c1,0,2,0,3,0c0-0.7,0-1.3,0-2c-1,0-2,0-3,0C5,48.2,5,48.8,5,49.5z
			 M14,48.5c0,1,0,2,0,3c1,0,2,0,3,0c0-1,0-2,0-3C16,48.5,15,48.5,14,48.5z M20,54.5c0-1,0-2,0-3c-1,0-2,0-3,0c0,1,0,2,0,3
			C18,54.5,19,54.5,20,54.5z M25.2,39.5l0.1,0.2l63.9-18l-3-10.6L21.8,29.2l2,7.3c0.1,0,0.1,0,0.2,0c0,0.2,0,0.5,0,0.7l0.7,2.6
			l0.3-0.1v-0.3H25.2z M78.1,13.4l7.7-2.2l-5.8,12l-7.7,2.2L78.1,13.4z M62.7,17.8l7.7-2.2l-5.8,12l-7.7,2.2L62.7,17.8z M46.3,22.4
			l7.7-2.2l-5.8,12l-7.7,2.2L46.3,22.4z M30.9,26.7l7.7-2.2l-5.8,12l-7.7,2.2L30.9,26.7z"/>
	</g>
</g>
</svg>
