<?xml version="1.0" encoding="utf-8"?>
<!-- Generator: Adobe Illustrator 21.0.2, SVG Export Plug-In . SVG Version: 6.00 Build 0)  -->
<svg version="1.1" id="Layer_1" xmlns="http://www.w3.org/2000/svg" xmlns:xlink="http://www.w3.org/1999/xlink" x="0px" y="0px"
	 viewBox="0 0 50 50" style="enable-background:new 0 0 50 50;" xml:space="preserve">
<style type="text/css">
	.st0{fill:none;}
	.st1{fill:white;}
</style>
<g>
	<rect class="st0" width="50" height="50"/>
	<path class="st1" d="M43,18.5c-1.2-0.7-2.9-0.5-4.7,0.2c-1.5,0.5-3.2,0.7-4.9,0.7c-1,0-2.1-0.1-3.1-0.3c-0.2,2.1-0.6,4.1-1.3,5.8
		c1,0.4,1.9,0.9,2.6,1.7c0.3,0.4,0.2,0.9-0.2,1.2c-0.2,0.1-0.3,0.2-0.5,0.2c-0.3,0-0.5-0.1-0.7-0.3c-0.4-0.5-1.1-1-1.8-1.2
		c-1.5,3.1-3.6,5.5-5.7,7.2c2.3,7.4,8.3,11.1,10.8,11.1c3.1,0,11.7-5.8,11.7-17.2C45.1,26,45.3,19.7,43,18.5z M38.5,37.2L38.5,37.2
		c-0.2,0.1-0.3,0.1-0.4,0c0,0-2.1-0.8-4.6-0.8c-2.5,0.1-4.6,1-4.6,1c-0.2,0.1-0.5,0.1-0.6-0.1C28,37.2,27.9,37,28,36.8
		c0-0.1,0.9-2.6,3.4-3.6c0.6-0.2,1.2-0.4,1.9-0.4c3.4-0.1,5,2.7,5.4,3.5c0,0,0.1,0.1,0.1,0.2C38.9,36.8,38.8,37.1,38.5,37.2z
		 M42.5,26.4c-0.2,0.4-0.8,0.6-1.2,0.3c-0.7-0.4-1.6-0.5-2.6-0.2c-0.8,0.2-1.5,0.7-2,1.2c-0.2,0.2-0.4,0.3-0.7,0.3
		c-0.2,0-0.4-0.1-0.5-0.2c-0.4-0.3-0.5-0.9-0.2-1.2c0.7-0.9,1.7-1.5,2.9-1.9c1.4-0.4,2.8-0.2,3.9,0.4C42.6,25.4,42.7,26,42.5,26.4z
		 M24.4,7.5c0.7,0,1.3,0.1,1.8,0.4c2.2,1.3,2,7.5,2,9.2c0,11.4-8.6,17.2-11.7,17.2c-3.1,0-11.7-5.8-11.7-17.2c0-1.6-0.2-7.9,2-9.2
		c0.5-0.3,1.1-0.4,1.8-0.4c0.9,0,1.9,0.2,3,0.6c1.5,0.5,3.2,0.7,4.9,0.7c1.7,0,3.4-0.2,4.9-0.7C22.5,7.7,23.5,7.5,24.4,7.5
		 M16.7,27.5c0.7,0,1.3-0.1,1.9-0.4c2.5-1,3.4-3.5,3.4-3.6c0.1-0.2,0-0.5-0.2-0.6c-0.2-0.2-0.4-0.2-0.6-0.1c0,0-2.1,0.9-4.6,1
		c-2.5,0.1-4.6-0.7-4.6-0.8c-0.1-0.1-0.3-0.1-0.4,0l0,0c-0.3,0.1-0.4,0.4-0.3,0.7c0,0.1,0.1,0.1,0.1,0.2
		C11.7,24.8,13.3,27.6,16.7,27.5z M25.1,17.3c0.4-0.3,0.5-0.9,0.2-1.2c-0.7-0.9-1.7-1.5-2.9-1.9c-1.4-0.4-2.8-0.2-3.9,0.4
		c-0.4,0.2-0.6,0.8-0.3,1.2c0.2,0.4,0.8,0.6,1.2,0.3c0.7-0.4,1.6-0.5,2.6-0.2c0.8,0.2,1.5,0.7,2,1.2c0.2,0.2,0.4,0.3,0.7,0.3
		C24.8,17.5,25,17.4,25.1,17.3z M9.3,17.1c0.4-0.6,1.2-1,2-1.2c0.9-0.3,1.9-0.2,2.6,0.2c0.4,0.2,1,0.1,1.2-0.3
		c0.2-0.4,0.1-1-0.3-1.2c-1.1-0.6-2.5-0.8-3.9-0.4c-1.2,0.3-2.2,1-2.9,1.9c-0.3,0.4-0.2,0.9,0.2,1.2c0.2,0.1,0.3,0.2,0.5,0.2
		C8.9,17.5,9.1,17.4,9.3,17.1z"/>
</g>
</svg>
