<?xml version="1.0" encoding="utf-8"?>
<!-- Generator: Adobe Illustrator 21.0.2, SVG Export Plug-In . SVG Version: 6.00 Build 0)  -->
<svg version="1.1" id="Layer_1" xmlns="http://www.w3.org/2000/svg" xmlns:xlink="http://www.w3.org/1999/xlink" x="0px" y="0px"
	 viewBox="0 0 50 50" style="enable-background:new 0 0 50 50;" xml:space="preserve">
<style type="text/css">
	.st0{fill:none;}
	.st1{fill:#009FDB;}
</style>
<g>
	<rect x="0.1" class="st0" width="49.9" height="49.9"/>
	<path class="st1" d="M41.5,12.1h-33c-1.4,0-2.5,1.1-2.5,2.5v20.6c0,1.4,1.1,2.5,2.5,2.5h33c1.4,0,2.5-1.1,2.5-2.5V14.6
		C44,13.2,42.9,12.1,41.5,12.1z M18.9,33.3h-9c-0.6,0-1-0.5-1-1s0.5-1,1-1h9c0.6,0,1,0.5,1,1S19.4,33.3,18.9,33.3z M30.3,28.6H9.7
		c-0.6,0-1-0.5-1-1c0-0.6,0.5-1,1-1h20.6c0.6,0,1,0.5,1,1C31.4,28.1,30.9,28.6,30.3,28.6z M40.4,33.3h-4c-0.6,0-1-0.5-1-1s0.5-1,1-1
		h4c0.6,0,1,0.5,1,1S40.9,33.3,40.4,33.3z M41.4,20.3c0,0.3-0.2,0.5-0.5,0.5H9.2c-0.3,0-0.5-0.2-0.5-0.5v-3.8c0-0.3,0.2-0.5,0.5-0.5
		h31.7c0.3,0,0.5,0.2,0.5,0.5V20.3z"/>
</g>
</svg>
