<?xml version="1.0" encoding="utf-8"?>
<!-- Generator: Adobe Illustrator 21.0.2, SVG Export Plug-In . SVG Version: 6.00 Build 0)  -->
<svg version="1.1" id="Layer_1" xmlns="http://www.w3.org/2000/svg" xmlns:xlink="http://www.w3.org/1999/xlink" x="0px" y="0px"
	 viewBox="0 0 50 50" style="enable-background:new 0 0 50 50;" xml:space="preserve">
<style type="text/css">
	.st0{fill:#FFCB05;}
</style>
<rect x="2" y="9.3" class="st0" width="45.8" height="26.5"/>
<g>
	<path d="M12.8,16.3v12.1H9.7V16.3H12.8z"/>
	<path d="M23.8,16.3v12.1h-2.8l0-8.2L20,28.4h-2l-1.2-8l0,8h-2.8V16.3h4.1c0.1,0.7,0.2,1.6,0.4,2.6l0.4,3.1l0.7-5.7H23.8z"/>
	<path d="M25.1,16.3h2.4c1.5,0,2.5,0.1,3.1,0.2c0.5,0.1,0.9,0.4,1.2,0.7c0.3,0.3,0.5,0.7,0.5,1.1c0.1,0.4,0.1,1.2,0.1,2.3v4.2
		c0,1.1-0.1,1.8-0.2,2.2c-0.1,0.4-0.3,0.7-0.5,0.9c-0.3,0.2-0.6,0.4-0.9,0.4c-0.4,0.1-0.9,0.1-1.7,0.1h-4V16.3z M28.2,18.3v8
		c0.5,0,0.7-0.1,0.8-0.3c0.1-0.2,0.2-0.7,0.2-1.5v-4.7c0-0.5,0-0.9-0.1-1.1c0-0.2-0.1-0.3-0.2-0.3S28.6,18.3,28.2,18.3z"/>
	<path d="M36.5,16.3v2.9c0.2-0.3,0.5-0.5,0.8-0.6c0.3-0.1,0.6-0.2,1-0.2c0.4,0,0.8,0.1,1.1,0.2c0.3,0.1,0.5,0.3,0.7,0.5
		s0.3,0.5,0.3,0.7c0,0.2,0,0.7,0,1.4v4.5c0,0.7,0,1.3-0.1,1.6c-0.1,0.4-0.3,0.7-0.7,0.9c-0.4,0.3-0.8,0.4-1.3,0.4
		c-0.4,0-0.7-0.1-1-0.2c-0.3-0.2-0.6-0.4-0.8-0.7l-0.2,0.7h-2.8V16.3H36.5z M37.4,21.3c0-0.5,0-0.8-0.1-1S37.1,20,36.9,20
		c-0.2,0-0.3,0.1-0.4,0.2c-0.1,0.1-0.1,0.5-0.1,1v4.3c0,0.5,0,0.9,0.1,1s0.2,0.2,0.4,0.2c0.2,0,0.3-0.1,0.4-0.2
		c0.1-0.2,0.1-0.5,0.1-1.1V21.3z"/>
</g>
<g>
	<path d="M42.8,34H7.2c-1.9,0-3.4-1.5-3.4-3.4V14.6c0-1.9,1.5-3.4,3.4-3.4h35.5c1.9,0,3.4,1.5,3.4,3.4v15.9
		C46.2,32.4,44.6,34,42.8,34z M7.2,12.9c-0.9,0-1.7,0.8-1.7,1.7v15.9c0,0.9,0.8,1.7,1.7,1.7h35.5c0.9,0,1.7-0.8,1.7-1.7V14.6
		c0-0.9-0.8-1.7-1.7-1.7H7.2z"/>
</g>
</svg>
