<?xml version="1.0" encoding="utf-8"?>
<!-- Generator: Adobe Illustrator 21.0.2, SVG Export Plug-In . SVG Version: 6.00 Build 0)  -->
<svg version="1.1" id="Layer_1" xmlns="http://www.w3.org/2000/svg" xmlns:xlink="http://www.w3.org/1999/xlink" x="0px" y="0px"
	 viewBox="0 0 50 50" style="enable-background:new 0 0 50 50;" xml:space="preserve">
<style type="text/css">
	.st0{fill:none;}
	.st1{fill:#009FDB;}
</style>
<g>
	<rect x="0" class="st0" width="50" height="50"/>
	<path class="st1" d="M6.6,23.4c-0.7,0-1.3-0.5-1.4-1.2c-0.1-0.8,0.5-1.4,1.2-1.5c2.7-0.3,5.2-1.2,7.5-2.7c4-2.7,6.5-7,7-11.8
		c0.1-0.8,0.8-1.3,1.5-1.2c0.8,0.1,1.3,0.8,1.2,1.5C23.1,12,20.2,17,15.5,20.2c-2.6,1.8-5.6,2.9-8.7,3.2C6.7,23.4,6.7,23.4,6.6,23.4
		z M6.3,18.5c2.3-0.3,4.4-1.1,6.4-2.4c3.4-2.3,5.7-6,6.2-10.1c0.1-0.8-0.4-1.5-1.2-1.6c-0.8-0.1-1.5,0.4-1.6,1.2
		c-0.5,3.3-2.3,6.3-5,8.2c-1.6,1.1-3.3,1.7-5.1,2c-0.8,0.1-1.3,0.8-1.2,1.6c0.1,0.7,0.7,1.2,1.4,1.2C6.2,18.5,6.3,18.5,6.3,18.5z
		 M5.8,13.7c1.5-0.2,2.9-0.7,4.1-1.6c2.2-1.5,3.7-3.9,4.1-6.6c0.1-0.8-0.4-1.5-1.2-1.6c-0.8-0.1-1.5,0.4-1.6,1.2
		C11,7,10,8.7,8.4,9.8c-0.9,0.6-1.9,1-2.9,1.1c-0.8,0.1-1.3,0.8-1.2,1.6c0.1,0.7,0.7,1.2,1.4,1.2C5.7,13.7,5.7,13.7,5.8,13.7z
		 M26.6,43c0,1.1,0.8,2.1,2,2.1c1.1,0,2-0.8,2.1-2l0.1-5c0-0.4,0.3-1,0.6-1.3c0,0,1.5-1.5,2.2-2.2c0.2-0.2,0.6-0.2,0.7,0.2
		c0.2,0.3,0.4,0.9,0.4,1.3l0,3.4c0,0.4,0.3,0.9,0.8,1l7.2,1.8c1.1,0.3,2.2-0.4,2.5-1.5c0-0.2,0.1-0.3,0.1-0.5c0-0.9-0.6-1.7-1.5-2
		l-4.2-1.1c-0.4-0.1-0.7-0.5-0.7-1c0,0,0-3.2,0-4c0-0.8,0-1.5-0.3-2.1c0-0.1-0.1-0.2-0.1-0.3c-0.1-0.3-0.3-0.7-0.6-1
		c-0.3-0.4-3-4.7-3-4.7c-0.2-0.4-0.1-0.6,0.3-0.6c0,0,0.4,0,0.8,0c0.4,0,0.9,0.3,1.1,0.6l2,2.7c0.5,0.7,1.5,0.9,2.3,0.4
		c0.7-0.5,0.9-1.5,0.4-2.3l-2.9-4.1c-0.2-0.3-0.8-0.6-1.2-0.6h-5c-0.4,0-1.1,0.2-1.4,0.4l-3,1.6c-0.4,0.2-0.9,0.6-1.1,1l-1.4,2.1
		c-0.2,0.3-0.8,0.6-1.2,0.6h-3c-0.9,0-1.6,0.7-1.6,1.6c0,0.9,0.7,1.6,1.6,1.6h4.7c0.4,0,1-0.3,1.2-0.6l1.1-1.6
		c0.2-0.3,0.6-0.3,0.9,0l2.1,3.2c0.2,0.4,0.2,0.9-0.1,1.2l-3.7,3.6c-0.3,0.3-0.6,0.9-0.6,1.3L26.6,43 M29.5,16.3
		C29,15.4,28,14.9,27,14.9c-0.6,0-1.1,0.2-1.6,0.5c-0.7,0.4-1.1,1.1-1.3,1.9c-0.2,0.8,0,1.6,0.4,2.3c0.6,0.9,1.5,1.4,2.5,1.4
		c0.6,0,1.1-0.2,1.6-0.5C30,19.5,30.4,17.7,29.5,16.3z"/>
</g>
</svg>
