<?xml version="1.0" encoding="utf-8"?>
<!-- Generator: Adobe Illustrator 21.0.2, SVG Export Plug-In . SVG Version: 6.00 Build 0)  -->
<svg version="1.1" id="Layer_1" xmlns="http://www.w3.org/2000/svg" xmlns:xlink="http://www.w3.org/1999/xlink" x="0px" y="0px"
	 viewBox="0 0 50 50" style="enable-background:new 0 0 50 50;" xml:space="preserve">
<style type="text/css">
	.st0{fill:none;}
	.st1{fill:#009FDB;}
</style>
<g>
	<rect x="-0.1" class="st0" width="50.1" height="50.1"/>
	<path class="st1" d="M36.3,24l-3.8,3.7c-0.7,0.7-1.1,2-1,3l0.9,5.2c0.1,0.4,0,0.7-0.2,0.9c-0.1,0.1-0.2,0.2-0.5,0.2
		c-0.2,0-0.4-0.1-0.6-0.2l-4.6-2.4c-0.8-0.4-2.3-0.4-3.1,0l-4.7,2.4c-0.2,0.1-0.4,0.2-0.6,0.2c-0.3,0-0.4-0.1-0.5-0.2
		c-0.2-0.2-0.2-0.5-0.2-0.9l0.9-5.2c0.2-0.9-0.3-2.3-1-3L13.6,24c-0.3-0.3-0.5-0.7-0.4-1c0.1-0.3,0.4-0.5,0.9-0.6l5.2-0.8
		c1-0.1,2.1-1,2.5-1.8l2.3-4.7c0.3-0.6,0.6-0.7,0.8-0.7s0.5,0.1,0.8,0.7l2.3,4.7c0.4,0.9,1.6,1.7,2.5,1.8l5.2,0.8
		c0.5,0.1,0.8,0.3,0.9,0.6C36.8,23.4,36.7,23.7,36.3,24z M15.9,29.2l-3.8-3.7c-0.9-0.9-1.3-2.1-0.9-3.1c0.3-1.1,1.3-1.8,2.6-2
		l3.1-0.4c-0.7-0.1-1.5-0.7-1.8-1.4l-1.8-3.6c-0.2-0.4-0.5-0.5-0.6-0.5c-0.1,0-0.4,0.1-0.6,0.5l-1.8,3.6C10,19.3,9.1,19.9,8.4,20
		l-3.9,0.6c-0.4,0.1-0.6,0.2-0.7,0.4c-0.1,0.2,0,0.5,0.3,0.7l2.9,2.8c0.5,0.5,0.9,1.5,0.7,2.2L7,30.7c-0.1,0.3,0,0.5,0.1,0.7
		c0.1,0.1,0.2,0.2,0.4,0.2c0.1,0,0.3,0,0.5-0.1l3.5-1.9c0.6-0.3,1.7-0.3,2.4,0l2.3,1.2l0.1-0.5C16.3,30.1,16.1,29.4,15.9,29.2z
		 M46.1,21c-0.1-0.2-0.3-0.4-0.7-0.4L41.5,20c-0.7-0.1-1.6-0.7-1.9-1.4l-1.8-3.6c-0.2-0.4-0.5-0.5-0.6-0.5s-0.4,0.1-0.6,0.5
		l-1.8,3.6c-0.3,0.6-1.1,1.2-1.8,1.4l3.1,0.4c1.3,0.2,2.2,0.9,2.6,2c0.3,1.1,0,2.2-0.9,3.1L34,29.2c-0.2,0.2-0.4,0.8-0.4,1.1
		l0.1,0.5l2.3-1.2c0.6-0.3,1.7-0.3,2.4,0l3.5,1.9c0.2,0.1,0.3,0.1,0.5,0.1c0.2,0,0.3-0.1,0.4-0.2c0.1-0.2,0.2-0.4,0.1-0.7l-0.7-3.9
		c-0.1-0.7,0.2-1.7,0.7-2.2l2.9-2.8C46.1,21.5,46.2,21.2,46.1,21z"/>
</g>
</svg>
