<?xml version="1.0" encoding="utf-8"?>
<!-- Generator: Adobe Illustrator 21.0.2, SVG Export Plug-In . SVG Version: 6.00 Build 0)  -->
<svg version="1.1" xmlns="http://www.w3.org/2000/svg" xmlns:xlink="http://www.w3.org/1999/xlink" x="0px" y="0px"
	 viewBox="0 0 50 50" style="enable-background:new 0 0 50 50;" xml:space="preserve">
<style type="text/css">
	.st0{fill-rule:evenodd;clip-rule:evenodd;fill:#EE3325;}
	.st1{fill-rule:evenodd;clip-rule:evenodd;fill:#3C2A1B;}
	.st2{fill-rule:evenodd;clip-rule:evenodd;fill:#5E943C;}
</style>
<g id="Layer_4">
	<path class="st0" d="M25.3,11.7c11.6,0,21,7.9,21,17.6s-9.4,17.6-21,17.6s-21-7.9-21-17.6S13.7,11.7,25.3,11.7z"/>
</g>
<g id="Layer_3">
	<path class="st1" d="M24.5,3.3c0,0-0.5,2.3-0.2,4.2c0.2,1.6,3.5,4.7,3.5,4.7l-3.6,4.5l-4.7-2.9l0.5-2c0,0,3.4,0.1,2.7-0.6
		C21.8,7.2,24.5,3.3,24.5,3.3z"/>
</g>
<g id="Layer_2_copy">
	<path class="st1" d="M22.5,2.5c0.5,0,1,0,1.6,0c0.2,0.6,0.3,1.3,0.3,2.3c-1.4,1.6-1.3,4.7-1.2,7.8c-0.7,0.4-0.7,0.5-1.9,0.6
		c-0.3-0.4-0.3-0.4-0.6-0.6c-0.3,0.9-0.5,1-0.9,1.6c0.9,0,1.6-0.4,2.2-0.3c0.7,0.1,2.3,1.8,2.5,1.3c0.2-0.4,0.4-1.6,0.6-1.9
		c0.5-0.4,1.4-0.6,1.9-1c-1.8-0.5-1-1.6-1.9-1.9c-0.3,0.3-0.1,0.1-0.6,0.3C24.2,9.4,24,9,23.8,8c1.3-0.4,1.9-1.2,3.4-1.6
		c0,0.2,0,0.4,0,0.6c-0.9,0.5-0.9,0.6-0.9,1.9c0.9,0.6,1.1,1.1,2.5,1.3c0-0.2,0-0.4,0-0.6c-0.3-0.3-0.4-0.6-0.6-1c0.3,0,0.6,0,0.9,0
		c0.3,0.3,0.1,0.1,0.6,0.3c0.2,0.8,0.6,2.8,1.2,3.2c1,0.7,2.5,0.4,3.7,1c2.5,1.1,6.9,3.4,7.8,6.2c-0.3,0-0.6,0-0.9,0
		c-2-2.5-7.8-3.3-12.5-3.2c0,0.2,0,0.4,0,0.6c1,0.6,2.1,1.8,2.5,2.9c0.6,1.7,1,8.2,0,9.7c-0.1-5.2-4.3-10.4-8.7-11
		c-0.1,2-0.8,3.6-2.2,4.2c-1.7,1.6-5.5,0.8-8.1,0.6c0-0.2,0-0.4,0-0.6c1.9-0.4,3.7-0.9,5.6-1.3c0.3-1,0.5-1.1,0.6-2.6
		c-1.5-1.3-1.6-2-4.7-1.9c-1.5,1.2-4.2,1.8-5.9,2.6c0-0.2,0-0.4,0-0.6c0.4-0.2,3.3-4,8.4-5.8c-2.4,0.5-4.5,0.4-5-1.3
		c1.8,0,6.7-1.8,7.2-2.6c-0.5-0.4-0.3-0.2-0.6-1c0.3,0,0.6,0,0.9,0c0.7,0.6,1.4,0.8,2.5,1C21.8,6.8,22.5,5.2,22.5,2.5z"/>
</g>
<g id="Layer_2">
	<path class="st2" d="M22.5,2c0.5,0,1,0,1.6,0c0.2,0.6,0.3,1.3,0.3,2.3C23,5.8,23.1,9,23.1,12.1c-0.7,0.4-0.7,0.5-1.9,0.6
		c-0.3-0.4-0.3-0.4-0.6-0.6c-0.3,0.9-0.5,1-0.9,1.6c0.9,0,1.6-0.4,2.2-0.3c0.7,0.1,2.3,1.8,2.5,1.3c0.2-0.4,0.4-1.6,0.6-1.9
		c0.5-0.4,1.4-0.6,1.9-1c-1.8-0.5-1-1.6-1.9-1.9c-0.3,0.3-0.1,0.1-0.6,0.3C24.2,9,24,8.5,23.8,7.5c1.3-0.4,1.9-1.2,3.4-1.6
		c0,0.2,0,0.4,0,0.6c-0.9,0.5-0.9,0.6-0.9,1.9c0.9,0.6,1.1,1.1,2.5,1.3c0-0.2,0-0.4,0-0.6c-0.3-0.3-0.4-0.6-0.6-1c0.3,0,0.6,0,0.9,0
		c0.3,0.3,0.1,0.1,0.6,0.3c0.2,0.8,0.6,2.8,1.2,3.2c1,0.7,2.5,0.4,3.7,1c2.5,1.1,6.9,3.4,7.8,6.2c-0.3,0-0.6,0-0.9,0
		c-2-2.5-7.8-3.3-12.5-3.2c0,0.2,0,0.4,0,0.6c1,0.6,2.1,1.8,2.5,2.9c0.6,1.7,1,8.2,0,9.7c-0.1-5.2-4.3-10.4-8.7-11
		c-0.1,2-0.8,3.6-2.2,4.2c-1.7,1.6-5.5,0.8-8.1,0.6c0-0.2,0-0.4,0-0.6c1.9-0.4,3.7-0.9,5.6-1.3c0.3-1,0.5-1.1,0.6-2.6
		c-1.5-1.3-1.6-2-4.7-1.9c-1.5,1.2-4.2,1.8-5.9,2.6c0-0.2,0-0.4,0-0.6c0.4-0.2,3.3-4,8.4-5.8c-2.4,0.5-4.5,0.4-5-1.3
		c1.8,0,6.7-1.8,7.2-2.6c-0.5-0.4-0.3-0.2-0.6-1c0.3,0,0.6,0,0.9,0c0.7,0.6,1.4,0.8,2.5,1C21.8,6.3,22.5,4.7,22.5,2z"/>
</g>
</svg>
