<?xml version="1.0" encoding="utf-8"?>
<!-- Generator: Adobe Illustrator 21.0.2, SVG Export Plug-In . SVG Version: 6.00 Build 0)  -->
<svg version="1.1" id="Layer_1" xmlns="http://www.w3.org/2000/svg" xmlns:xlink="http://www.w3.org/1999/xlink" x="0px" y="0px"
	 viewBox="0 0 50 50" style="enable-background:new 0 0 50 50;" xml:space="preserve">
<style type="text/css">
	.st0{fill:none;}
	.st1{fill:#009FDB;}
</style>
<g>
	<rect class="st0" width="50" height="50"/>
	<path class="st1" d="M23.3,11.3v27.5c0,0.4-0.2,0.8-0.6,1c-0.2,0.1-0.3,0.1-0.5,0.1c-0.2,0-0.5-0.1-0.7-0.2c0,0-9.8-8.8-10-9H6.3
		c-0.9,0-1.6-0.7-1.6-1.6v-8c0-0.9,0.7-1.6,1.6-1.6h5.1c0.2-0.2,10-9.2,10-9.2c0.2-0.2,0.4-0.2,0.7-0.2c0.2,0,0.4,0,0.5,0.1
		C23,10.4,23.3,10.8,23.3,11.3z M39.8,40.3c4.6-5.6,6.4-12.8,5.1-19.8c-0.7-3.9-2.5-7.7-5-10.8c-0.5-0.7-1.5-0.8-2.2-0.2
		c-0.7,0.5-0.8,1.5-0.2,2.2c2.2,2.7,3.7,5.9,4.3,9.4c1.2,6.1-0.5,12.4-4.4,17.3c-0.5,0.7-0.5,1.7,0.2,2.2c0.3,0.2,0.6,0.4,1,0.4
		C39,40.9,39.5,40.7,39.8,40.3z M35.1,36.3c3.2-4.2,4.4-9.5,3.5-14.7c-0.5-2.9-1.7-5.6-3.5-7.9c-0.5-0.7-1.5-0.8-2.2-0.3
		c-0.7,0.5-0.8,1.5-0.3,2.2c1.5,1.9,2.5,4.1,2.9,6.6c0.8,4.3-0.2,8.7-2.9,12.2c-0.5,0.7-0.4,1.7,0.3,2.2c0.3,0.2,0.6,0.3,0.9,0.3
		C34.4,36.9,34.8,36.7,35.1,36.3z M30.2,32.3c2.1-2.7,2.9-6.2,2.3-9.6c-0.4-1.9-1.1-3.6-2.3-5.1c-0.5-0.7-1.5-0.8-2.2-0.3
		c-0.7,0.5-0.8,1.5-0.3,2.2c0.8,1.1,1.4,2.4,1.7,3.8c0.5,2.5-0.1,5.1-1.7,7.1c-0.5,0.7-0.4,1.7,0.3,2.2c0.3,0.2,0.6,0.3,0.9,0.3
		C29.4,33,29.9,32.8,30.2,32.3z"/>
</g>
</svg>
