<?xml version="1.0" encoding="utf-8"?>
<!-- Generator: Adobe Illustrator 21.0.2, SVG Export Plug-In . SVG Version: 6.00 Build 0)  -->
<svg version="1.1" id="Layer_1" xmlns="http://www.w3.org/2000/svg" xmlns:xlink="http://www.w3.org/1999/xlink" x="0px" y="0px"
	 viewBox="0 0 50 50" style="enable-background:new 0 0 50 50;" xml:space="preserve">
<style type="text/css">
	.st0{fill:none;}
	.st1{fill:#009FDB;}
</style>
<g>
	<rect x="0.1" class="st0" width="49.9" height="49.9"/>
	<rect x="0.1" class="st0" width="49.9" height="49.9"/>
	<path class="st1" d="M25,4.2C13.5,4.2,4.2,13.5,4.2,25S13.5,45.8,25,45.8c11.5,0,20.8-9.3,20.8-20.8S36.5,4.2,25,4.2z M30.7,36.8
		c0,0.4-0.2,0.7-0.5,0.9c-0.1,0.1-0.3,0.1-0.5,0.1c-0.2,0-0.4-0.1-0.6-0.2c0,0-8.4-7.5-8.6-7.7h-4.4c-0.8,0-1.4-0.6-1.4-1.4v-6.9
		c0-0.8,0.6-1.4,1.4-1.4h4.4c0.2-0.1,8.6-7.9,8.6-7.9c0.2-0.1,0.4-0.2,0.6-0.2c0.2,0,0.3,0,0.5,0.1c0.3,0.2,0.5,0.5,0.5,0.9V36.8z"
		/>
</g>
</svg>
