<?xml version="1.0" encoding="utf-8"?>
<!-- Generator: Adobe Illustrator 21.0.2, SVG Export Plug-In . SVG Version: 6.00 Build 0)  -->
<svg version="1.1" id="Layer_1" xmlns="http://www.w3.org/2000/svg" xmlns:xlink="http://www.w3.org/1999/xlink" x="0px" y="0px"
	 viewBox="0 0 50 50" style="enable-background:new 0 0 50 50;" xml:space="preserve">
<style type="text/css">
	.st0{fill:none;}
	.st1{fill:#009FDB;}
</style>
<g>
	<rect x="0.1" class="st0" width="49.9" height="49.9"/>
	<path class="st1" d="M14.7,19.5l11.8,11.8v7.4c0,0.4-0.2,0.8-0.6,1c-0.2,0.1-0.3,0.1-0.5,0.1c-0.2,0-0.5-0.1-0.7-0.2
		c0,0-9.8-8.8-10-9H9.6c-0.9,0-1.6-0.7-1.6-1.6v-8c0-0.9,0.7-1.6,1.6-1.6L14.7,19.5C14.7,19.5,14.7,19.5,14.7,19.5z M42.7,40.6
		l-4.4-4.4c0,0,0,0,0.1-0.1c3.2-4.2,4.4-9.5,3.4-14.6c-0.5-2.9-1.7-5.6-3.5-7.9c-0.5-0.7-1.5-0.8-2.2-0.3c-0.7,0.5-0.8,1.5-0.3,2.2
		c1.5,1.9,2.5,4.1,2.9,6.6c0.8,4.1-0.2,8.4-2.7,11.9l-2.3-2.3c1.8-2.6,2.5-5.9,1.9-9c-0.4-1.9-1.1-3.6-2.3-5.1
		c-0.5-0.7-1.5-0.8-2.2-0.3c-0.7,0.5-0.8,1.5-0.3,2.2c0.8,1.1,1.4,2.4,1.7,3.8c0.4,2.1,0,4.3-1.1,6.2l-5-5V11.2c0-0.4-0.2-0.8-0.6-1
		c-0.2-0.1-0.3-0.1-0.5-0.1c-0.2,0-0.5,0.1-0.7,0.2c0,0-3.5,3.3-6.4,5.9L9.4,7.3c-0.5-0.5-1.4-0.5-2,0s-0.5,1.4,0,2l33.3,33.3
		c0.3,0.3,0.6,0.4,1,0.4c0.4,0,0.7-0.1,1-0.4C43.2,42,43.2,41.1,42.7,40.6z"/>
</g>
</svg>
