<?xml version="1.0" encoding="utf-8"?>
<!-- Generator: Adobe Illustrator 21.0.2, SVG Export Plug-In . SVG Version: 6.00 Build 0)  -->
<svg version="1.1" id="Layer_1" xmlns="http://www.w3.org/2000/svg" xmlns:xlink="http://www.w3.org/1999/xlink" x="0px" y="0px"
	 viewBox="0 0 50 50" style="enable-background:new 0 0 50 50;" xml:space="preserve">
<style type="text/css">
	.st0{fill:none;}
	.st1{fill:#009FDB;}
</style>
<g>
	<rect x="0.2" y="0.2" class="st0" width="49.7" height="49.7"/>
	<path class="st1" d="M38,26.1c1.2-0.4,2.1-1.6,2.1-3c0-1.8-1.4-3.2-3.2-3.2h-6.1v0h-4.1l0.1-0.1c0.6-1.2,4-6.7,3.6-10.4
		C30,5.7,26.9,4,26.1,4.3c-2.3,0.6-0.8,5.2-3.6,9c-2.7,3.7-6.4,7.4-7.2,8.2c-1.3,1.2-5.3,4.7-5.3,11c0,5.8,2.9,11.9,8.3,11.8
		c2.8,0,5.6,0,7.7,0v0h6.1c1.8,0,3.2-1.4,3.2-3.2c0-1.2-0.7-2.3-1.7-2.8h1.6c1.8,0,3.2-1.4,3.2-3.2c0-1.2-0.7-2.3-1.7-2.8h0.2
		c1.8,0,3.2-1.4,3.2-3.2C40.1,27.7,39.2,26.5,38,26.1z"/>
</g>
</svg>
