<?xml version="1.0" encoding="utf-8"?>
<!-- Generator: Adobe Illustrator 21.0.2, SVG Export Plug-In . SVG Version: 6.00 Build 0)  -->
<svg version="1.1" id="Layer_1" xmlns="http://www.w3.org/2000/svg" xmlns:xlink="http://www.w3.org/1999/xlink" x="0px" y="0px"
	 viewBox="0 0 50 50" style="enable-background:new 0 0 50 50;" xml:space="preserve">
<style type="text/css">
	.st0{fill:none;}
	.st1{fill:white;}
</style>
<g>
	<rect x="0" class="st0" width="50" height="50"/>
	<path class="st1" d="M44.3,17.4h-4.2H9.9H5.7c-0.3,0-0.5,0.2-0.5,0.5v12.6v4.1c0,1.6,1.3,3,3,3h33.6c1.7,0,3-1.4,3-3v-4.1V17.9
		C44.8,17.6,44.6,17.4,44.3,17.4z M30,28l-8.5,4.4c-0.2,0.1-0.5,0.1-0.7,0c-0.2-0.1-0.3-0.3-0.3-0.6V23c0-0.2,0.1-0.5,0.3-0.6
		c0.2-0.1,0.5-0.1,0.7,0l8.5,4.4c0.1,0.1,0.2,0.2,0.3,0.3C30.4,27.4,30.3,27.9,30,28z M12.7,9.2L8,16.5L5.7,17
		c-0.3,0.1-0.5-0.1-0.6-0.4L4.5,14c-0.3-1.6,0.7-3.3,2.3-3.6L12.7,9.2z M23.8,6.8l-4.8,7.4l-5.6,1.2L18.3,8L23.8,6.8z M43.3,5.8
		l0.6,2.6c0.1,0.3-0.1,0.5-0.4,0.6l-1.5,0.3l-6.2,1.3l4.7-7.2c0.5,0,1.1,0.2,1.5,0.5C42.6,4.3,43.1,5,43.3,5.8z M34.9,4.5l-4.8,7.4
		L24.6,13l4.8-7.4L34.9,4.5z"/>
</g>
</svg>
