<?xml version="1.0" encoding="utf-8"?>
<!-- Generator: Adobe Illustrator 21.0.2, SVG Export Plug-In . SVG Version: 6.00 Build 0)  -->
<svg version="1.1" id="Layer_1" xmlns="http://www.w3.org/2000/svg" xmlns:xlink="http://www.w3.org/1999/xlink" x="0px" y="0px"
	 viewBox="0 0 50 50" style="enable-background:new 0 0 50 50;" xml:space="preserve">
<style type="text/css">
	.st0{fill:#2AA142;}
	.st1{fill:#414042;}
</style>
<g id="Layer_3">
	<g>
		<g>
			<path class="st0" d="M38.4,24.4c-0.3,7.2-6.1,12.9-13.4,12.9c-7.4,0-13.4-6-13.4-13.4s6-13.4,13.4-13.4c4.4,0,8.3,2.2,10.8,5.5
				l2.3-2.3c-3-3.9-7.8-6.4-13.1-6.4c-9.2,0-16.7,7.4-16.7,16.7S15.8,40.6,25,40.6s16.7-7.4,16.7-16.7c0-0.9-0.1-1.8-0.3-2.6
				L38.4,24.4z"/>
		</g>
	</g>
</g>
<g id="Layer_2">
	<path class="st1" d="M44.7,9.2L27.3,28.8c-0.1,0.1-0.4,0.3-0.5,0.3s-0.3,0-0.4-0.1l-8.8-7.8l-2.2,2.5l8.8,7.8
		c0.8,0.7,1.7,0.9,2.6,0.9c1,0,2.2-0.4,3-1.3l17.3-19.6L44.7,9.2z"/>
</g>
</svg>
