<?xml version="1.0" encoding="utf-8"?>
<!-- Generator: Adobe Illustrator 21.0.2, SVG Export Plug-In . SVG Version: 6.00 Build 0)  -->
<svg version="1.1" id="Layer_1" xmlns="http://www.w3.org/2000/svg" xmlns:xlink="http://www.w3.org/1999/xlink" x="0px" y="0px"
	 viewBox="0 0 50 50" style="enable-background:new 0 0 50 50;" xml:space="preserve">
<style type="text/css">
	.st0{fill:none;}
	.st1{fill:#009FDB;}
</style>
<g>
	<rect x="0.1" class="st0" width="49.9" height="49.9"/>
	<rect x="0.1" y="0" class="st0" width="49.9" height="49.9"/>
	<path class="st1" d="M25.1,4.2c-11.5,0-20.8,9.3-20.8,20.8s9.3,20.8,20.8,20.8c11.5,0,20.8-9.3,20.8-20.8S36.5,4.2,25.1,4.2z
		 M29,31.9c-0.8,0.7-1.3,1.7-1.7,2.8c-0.9,2-2,4.6-6.1,4.6c-2.7,0-5-2.4-5.2-5.6c0-0.7,0.5-1.2,1.1-1.3c0.7-0.1,1.2,0.5,1.3,1.1
		c0.1,1.6,1.2,3.3,2.8,3.3c2.5,0,3-1.3,3.9-3.2c0.5-1.2,1.1-2.5,2.3-3.6c4.6-4.1,6.5-8.7,5.3-12.6c-0.9-2.7-3.3-4.6-6.2-4.9
		c-6-0.7-7,5.1-7.1,5.3c-0.1,0.7-0.7,1.1-1.4,1c-0.7-0.1-1.1-0.7-1-1.4c0.5-2.9,3.1-8.1,9.7-7.3c3.8,0.4,7.1,3,8.2,6.6
		C36.5,21.5,34.3,27,29,31.9z M21.6,23.5c-1-0.7-1.1-1.9-0.2-3s1-3.2,2.4-4.5c1.3-1.2,4.3-1.7,5.3,1.1c0.2,0.6-0.6,0.5-0.9,0.3
		c-1.1-0.8-2.4-0.9-3.6,1.1c-0.8,1.5,0.2,4.5,0.4,6.5c0.3,2.1-1.6,6.3-4.4,4c-1.1-0.9,0.2-2.4,0.9-2.8S22.6,24.2,21.6,23.5z"/>
</g>
</svg>
