<?xml version="1.0" encoding="utf-8"?>
<!-- Generator: Adobe Illustrator 21.0.2, SVG Export Plug-In . SVG Version: 6.00 Build 0)  -->
<svg version="1.1" id="Layer_1" xmlns="http://www.w3.org/2000/svg" xmlns:xlink="http://www.w3.org/1999/xlink" x="0px" y="0px"
	 viewBox="0 0 50 50" style="enable-background:new 0 0 50 50;" xml:space="preserve">
<style type="text/css">
	.st0{fill:#009FDB;}
</style>
<g>
	<path class="st0" d="M10.7,15.3v14.2H7V15.3H10.7z"/>
	<path class="st0" d="M23.6,15.3v14.2h-3.2l0-9.6l-1.3,9.6h-2.3l-1.4-9.4l0,9.4h-3.2V15.3H17c0.1,0.9,0.3,1.9,0.4,3l0.5,3.6l0.9-6.6
		H23.6z"/>
	<path class="st0" d="M25.1,15.3h2.8c1.8,0,3,0.1,3.6,0.2c0.6,0.2,1.1,0.4,1.4,0.8s0.5,0.8,0.6,1.3s0.1,1.4,0.1,2.7v5
		c0,1.3-0.1,2.1-0.2,2.6c-0.1,0.4-0.3,0.8-0.6,1s-0.7,0.4-1.1,0.5c-0.4,0.1-1.1,0.1-2,0.1h-4.7V15.3z M28.8,17.8v9.4
		c0.5,0,0.9-0.1,1-0.3c0.1-0.2,0.2-0.8,0.2-1.7v-5.5c0-0.6,0-1.1-0.1-1.2s-0.1-0.3-0.3-0.4S29.2,17.8,28.8,17.8z"/>
	<path class="st0" d="M38.5,15.3v3.4c0.3-0.3,0.6-0.6,1-0.8c0.4-0.2,0.8-0.3,1.2-0.3c0.5,0,0.9,0.1,1.3,0.2s0.6,0.4,0.8,0.6
		s0.3,0.5,0.3,0.8s0.1,0.8,0.1,1.7v5.3c0,0.9-0.1,1.5-0.2,1.9c-0.1,0.4-0.4,0.8-0.8,1.1c-0.4,0.3-0.9,0.5-1.5,0.5
		c-0.4,0-0.8-0.1-1.2-0.3c-0.4-0.2-0.7-0.5-1-0.8l-0.2,0.9h-3.3V15.3H38.5z M39.6,21.2c0-0.6,0-1-0.1-1.2s-0.2-0.3-0.4-0.3
		c-0.2,0-0.4,0.1-0.4,0.2s-0.1,0.6-0.1,1.2v5c0,0.6,0,1,0.1,1.2s0.2,0.3,0.4,0.3c0.2,0,0.4-0.1,0.4-0.3c0.1-0.2,0.1-0.6,0.1-1.3
		V21.2z"/>
</g>
<g>
	<path class="st0" d="M45.9,36.1H4.1c-2.2,0-4-1.8-4-4V13.4c0-2.2,1.8-4,4-4h41.8c2.2,0,4,1.8,4,4v18.8
		C49.9,34.3,48.1,36.1,45.9,36.1z M4.1,11.4c-1.1,0-2,0.9-2,2v18.8c0,1.1,0.9,2,2,2h41.8c1.1,0,2-0.9,2-2V13.4c0-1.1-0.9-2-2-2H4.1z
		"/>
</g>
</svg>
