<?xml version="1.0" encoding="utf-8"?>
<!-- Generator: Adobe Illustrator 21.0.2, SVG Export Plug-In . SVG Version: 6.00 Build 0)  -->
<svg version="1.1" id="Layer_1" xmlns="http://www.w3.org/2000/svg" xmlns:xlink="http://www.w3.org/1999/xlink" x="0px" y="0px"
	 viewBox="0 0 50 50" style="enable-background:new 0 0 50 50;" xml:space="preserve">
<style type="text/css">
	.st0{fill:none;}
	.st1{fill:#009FDB;}
</style>
<g>
	<rect y="0" class="st0" width="50" height="50"/>
	<rect y="0" class="st0" width="50" height="50"/>
	<path class="st1" d="M32.4,43.5c0,0.8-0.6,1.4-1.4,1.4H19c-0.8,0-1.4-0.6-1.4-1.4c0-0.8,0.6-1.4,1.4-1.4h4.6v-4.8
		c-3.6-0.7-6.4-3.8-6.4-7.6v-8.3l13.5,13.5c-1.1,1.2-2.6,2.1-4.3,2.4v4.8H31C31.8,42.1,32.4,42.8,32.4,43.5z M42.7,42
		c-0.3,0.3-0.6,0.4-1,0.4c-0.4,0-0.7-0.1-1-0.4l-8.8-8.8L19.2,20.5L7.4,8.6c-0.5-0.5-0.5-1.4,0-2v0c0.5-0.5,1.4-0.5,2,0l8.2,8.2h6.6
		c0.6,0,1-0.5,1-1c0-0.6-0.5-1-1-1h-6.9c0-4.3,3.5-7.7,7.7-7.7c4.3,0,7.8,3.5,7.8,7.8v16.9c0,0.1,0,0.2,0,0.3l9.9,9.9
		C43.2,40.5,43.2,41.4,42.7,42z M25.2,19.4c0-0.6-0.5-1-1-1H21l2.1,2.1h1C24.7,20.5,25.2,20,25.2,19.4z"/>
</g>
</svg>
