<?xml version="1.0" encoding="utf-8"?>
<!-- Generator: Adobe Illustrator 21.0.2, SVG Export Plug-In . SVG Version: 6.00 Build 0)  -->
<svg version="1.1" id="Layer_1" xmlns="http://www.w3.org/2000/svg" xmlns:xlink="http://www.w3.org/1999/xlink" x="0px" y="0px"
	 viewBox="0 0 50 50" style="enable-background:new 0 0 50 50;" xml:space="preserve">
<style type="text/css">
	.st0{fill:none;}
	.st1{fill:#009FDB;}
</style>
<g>
	<rect x="-0.1" class="st0" width="50" height="50"/>
	<path class="st1" d="M32.7,29.7V12.8c0-4.3-3.5-7.8-7.8-7.8c-4.3,0-7.7,3.5-7.7,7.7h6.9c0.6,0,1,0.5,1,1c0,0.6-0.5,1-1,1h-6.9v3.5
		h6.9c0.6,0,1,0.5,1,1s-0.5,1-1,1h-6.9V24h6.9c0.6,0,1,0.5,1,1s-0.5,1-1,1h-6.9v3.7c0,3.8,2.8,7,6.4,7.6v4.8h-4.6
		c-0.8,0-1.4,0.6-1.4,1.4c0,0.8,0.6,1.4,1.4,1.4H31c0.8,0,1.4-0.6,1.4-1.4c0-0.8-0.6-1.4-1.4-1.4h-4.6v-4.8
		C29.9,36.7,32.7,33.5,32.7,29.7z"/>
</g>
</svg>
