<?xml version="1.0" encoding="utf-8"?>
<!-- Generator: Adobe Illustrator 21.0.2, SVG Export Plug-In . SVG Version: 6.00 Build 0)  -->
<svg version="1.1" id="Layer_1" xmlns="http://www.w3.org/2000/svg" xmlns:xlink="http://www.w3.org/1999/xlink" x="0px" y="0px"
	 viewBox="0 0 50 50" style="enable-background:new 0 0 50 50;" xml:space="preserve">
<style type="text/css">
	.st0{fill:none;}
	.st1{fill:#009FDB;}
</style>
<g>
	<rect x="0.1" class="st0" width="50" height="50"/>
	<path class="st1" d="M25.1,4.7c11.3,0,20.4,9.1,20.4,20.4c0,11.3-9.1,20.4-20.4,20.4c-11.3,0-20.4-9.1-20.4-20.4
		C4.7,13.8,13.8,4.7,25.1,4.7z M25.1,8.8c-2.7,0-4.9,2.2-4.9,4.9c0,2.7,2.2,5,4.9,5c2.7,0,4.9-2.2,4.9-5C30.1,11,27.9,8.8,25.1,8.8z
		 M23,25c0,1.1,0.9,2,2,2c1.1,0,2-0.9,2-2c0-1.1-0.9-2-2-2C23.9,23,23,23.9,23,25z M25.1,31.5c-2.7,0-4.9,2.2-4.9,4.9
		c0,2.7,2.2,4.9,4.9,4.9c2.7,0,4.9-2.2,4.9-4.9C30.1,33.7,27.9,31.5,25.1,31.5z M41.4,25.1c0-2.7-2.2-5-5-5c-2.7,0-4.9,2.2-4.9,5
		c0,2.7,2.2,4.9,4.9,4.9C39.2,30,41.4,27.8,41.4,25.1z M18.7,25.1c0-2.7-2.2-5-5-5c-2.7,0-4.9,2.2-4.9,5c0,2.7,2.2,4.9,4.9,4.9
		C16.5,30,18.7,27.8,18.7,25.1z"/>
</g>
</svg>
