<?xml version="1.0" encoding="utf-8"?>
<!-- Generator: Adobe Illustrator 21.0.2, SVG Export Plug-In . SVG Version: 6.00 Build 0)  -->
<svg version="1.1" id="Layer_1" xmlns="http://www.w3.org/2000/svg" xmlns:xlink="http://www.w3.org/1999/xlink" x="0px" y="0px"
	 viewBox="0 0 50 50" style="enable-background:new 0 0 50 50;" xml:space="preserve">
<style type="text/css">
	.st0{fill:none;}
	.st1{fill:#009FDB;}
</style>
<g>
	<rect y="0.3" class="st0" width="50" height="50"/>
	<path class="st1" d="M37.5,29.5c-4.6,0-8.3,3.7-8.3,8.3c0,4.6,3.7,8.3,8.3,8.3c4.6,0,8.3-3.7,8.3-8.3
		C45.8,33.2,42.1,29.5,37.5,29.5z M37.5,44.1c-3.4,0-6.3-2.8-6.3-6.3c0-3.4,2.8-6.3,6.3-6.3c3.4,0,6.3,2.8,6.3,6.3
		C43.7,41.3,40.9,44.1,37.5,44.1z M35.1,41.2c-0.3,0-0.5-0.1-0.8-0.3c-0.4-0.4-0.4-1.1,0-1.5l2.1-2v-2.9c0-0.6,0.5-1,1-1
		c0.6,0,1,0.5,1,1v3.3c0,0.3-0.1,0.6-0.3,0.8l-2.4,2.3C35.6,41.1,35.4,41.2,35.1,41.2z M26.5,40.3c-0.3,0-0.5-0.2-0.5-0.5v-5.3
		c0-0.3,0.2-0.5,0.5-0.5h1.4c0.3-0.8,0.7-1.5,1.2-2.2h-2.6c-0.3,0-0.5-0.2-0.5-0.5V26c0-0.3,0.2-0.5,0.5-0.5H32
		c0.3,0,0.5,0.2,0.5,0.5v2.7c0.7-0.4,1.4-0.7,2.2-0.9V26c0-0.3,0.2-0.5,0.5-0.5h5.5c0.3,0,0.5,0.2,0.5,0.5v2.1c1,0.4,2,0.9,2.8,1.6
		V11.3c0-0.8-0.7-1.5-1.5-1.5h-4.7v-2c0-1.1-0.9-2-2.1-2c-1.1,0-1.9,1-1.9,2.1v1.9H16v-2c0-1.1-0.9-2-2.1-2c-1.1,0-1.9,1-1.9,2.1
		v1.9H7.3c-0.8,0-1.5,0.7-1.5,1.5v30.3c0,0.8,0.7,1.5,1.5,1.5h21.3c-0.5-0.9-0.9-1.8-1.1-2.8H26.5z M40.7,17c0.3,0,0.5,0.2,0.5,0.5
		v5.3c0,0.3-0.2,0.5-0.5,0.5h-5.5c-0.3,0-0.5-0.2-0.5-0.5v-5.3c0-0.3,0.2-0.5,0.5-0.5H40.7z M37.7,11.8c0,1.1-0.9,2-2.1,2
		c-1.1,0-1.9-0.9-1.9-2H37.7z M26,17.5c0-0.3,0.2-0.5,0.5-0.5H32c0.3,0,0.5,0.2,0.5,0.5v5.3c0,0.3-0.2,0.5-0.5,0.5h-5.5
		c-0.3,0-0.5-0.2-0.5-0.5V17.5z M15.1,39.8c0,0.3-0.2,0.5-0.5,0.5H9.1c-0.3,0-0.5-0.2-0.5-0.5v-5.3c0-0.3,0.2-0.5,0.5-0.5h5.5
		c0.3,0,0.5,0.2,0.5,0.5V39.8z M15.1,31.3c0,0.3-0.2,0.5-0.5,0.5H9.1c-0.3,0-0.5-0.2-0.5-0.5V26c0-0.3,0.2-0.5,0.5-0.5h5.5
		c0.3,0,0.5,0.2,0.5,0.5V31.3z M13.9,13.8c-1.1,0-1.9-0.9-1.9-2h4C16,12.9,15,13.8,13.9,13.8z M23.8,39.8c0,0.3-0.2,0.5-0.5,0.5
		h-5.5c-0.3,0-0.5-0.2-0.5-0.5v-5.3c0-0.3,0.2-0.5,0.5-0.5h5.5c0.3,0,0.5,0.2,0.5,0.5V39.8z M23.8,31.3c0,0.3-0.2,0.5-0.5,0.5h-5.5
		c-0.3,0-0.5-0.2-0.5-0.5V26c0-0.3,0.2-0.5,0.5-0.5h5.5c0.3,0,0.5,0.2,0.5,0.5V31.3z"/>
</g>
</svg>
