<?xml version="1.0" encoding="utf-8"?>
<!-- Generator: Adobe Illustrator 21.0.2, SVG Export Plug-In . SVG Version: 6.00 Build 0)  -->
<svg version="1.1" id="Layer_1" xmlns="http://www.w3.org/2000/svg" xmlns:xlink="http://www.w3.org/1999/xlink" x="0px" y="0px"
	 viewBox="0 0 50 50" style="enable-background:new 0 0 50 50;" xml:space="preserve">
<style type="text/css">
	.st0{fill:none;}
	.st1{fill:white;}
</style>
<g>
	<rect x="0" y="0.1" class="st0" width="50.1" height="50.1"/>
	<path class="st1" d="M20.4,10c0.2,0,0.4,0.1,0.6,0.2c0,0,0,0,0.4,0.2c0.6,0.3,1.2,0.5,1.9,0.5c0.7,0,1.3-0.2,1.9-0.5
		c0.4-0.2,0.4-0.2,0.4-0.2C25.8,10,26,10,26.2,10c0.2,0,0.4,0.1,0.5,0.2c0.1,0.1,0.2,0.2,0.3,0.3c0.1,0.1,0.2,0.2,0.2,0.2l6.1,6.1
		l0.1,0.1c0,0,0.2,0.2,0.4,0.4c0.2,0.2,0.2,0.6-0.1,0.9c0,0,0,0-0.2,0.3c-0.8,1.3-0.8,2.9,0,4.2c0.2,0.3,0.2,0.3,0.2,0.3
		c0.3,0.3,0.3,0.7,0.1,0.9c-0.2,0.2-0.4,0.4-0.4,0.4L17.9,39.6c0,0-0.2,0.2-0.5,0.5c-0.1,0.1-0.3,0.2-0.5,0.2
		c-0.2,0-0.4-0.1-0.6-0.2c0,0,0,0-0.4-0.2c-0.6-0.3-1.2-0.5-1.9-0.5c-0.7,0-1.3,0.2-1.9,0.5C11.7,40,11.7,40,11.7,40
		c-0.2,0.2-0.4,0.2-0.6,0.2c-0.2,0-0.4-0.1-0.5-0.2c-0.1-0.1-0.2-0.2-0.3-0.3l-0.2-0.2L4,33.5l-0.1-0.1c0,0-0.2-0.2-0.4-0.4
		c-0.2-0.2-0.2-0.6,0.1-0.9c0,0,0,0,0.2-0.3c0.8-1.3,0.8-2.9,0-4.2c-0.2-0.3-0.2-0.3-0.2-0.3c-0.3-0.3-0.3-0.7-0.1-0.9
		C3.8,26.2,4,26.1,4,26.1l15.4-15.4c0,0,0.2-0.2,0.5-0.5C20,10,20.2,10,20.4,10 M48.3,23.3C48.1,23,48,22.8,48,22.8l0-0.1L44.3,15
		c0,0,0-0.1-0.1-0.2c-0.1-0.1-0.1-0.2-0.2-0.4c-0.2-0.3-0.6-0.5-1.1-0.3c0,0,0,0-0.5,0.1c-1.3,0.2-2.7-0.3-3.6-1.3
		c-0.3-0.3-0.3-0.3-0.3-0.3c-0.2-0.4-0.7-0.6-1-0.4c-0.3,0.2-0.6,0.3-0.6,0.3L33.5,14l1.3,1.3l0.1,0.1l0.4,0.4
		c0.9,0.9,1,2.4,0.2,3.5l-0.1,0.2c-0.4,0.6-0.4,1.5,0,2.1l0.1,0.2c0.8,1.1,0.8,2.7-0.2,3.6l-0.4,0.4L22.6,37.8
		c0.5,0.2,0.9,0.5,1.2,0.9c0.3,0.3,0.3,0.3,0.3,0.3c0.2,0.4,0.7,0.6,1,0.4c0.3-0.2,0.6-0.3,0.6-0.3l19.7-9.4c0,0,0.2-0.1,0.5-0.2
		c0.3-0.1,0.4-0.5,0.2-0.9c0,0,0,0-0.1-0.3c-0.3-1.5,0.3-3,1.4-4c0.3-0.2,0.3-0.2,0.3-0.2C48.2,23.9,48.4,23.5,48.3,23.3z"/>
</g>
</svg>
