<?xml version="1.0" encoding="utf-8"?>
<!-- Generator: Adobe Illustrator 21.0.2, SVG Export Plug-In . SVG Version: 6.00 Build 0)  -->
<svg version="1.1" id="Layer_1" xmlns="http://www.w3.org/2000/svg" xmlns:xlink="http://www.w3.org/1999/xlink" x="0px" y="0px"
	 viewBox="0 0 50 50" style="enable-background:new 0 0 50 50;" xml:space="preserve">
<style type="text/css">
	.st0{fill:none;}
	.st1{fill:#009FDB;}
</style>
<g>
	<rect x="0.2" class="st0" width="50" height="50"/>
	<g>
		<path class="st1" d="M46.2,32.7c0.9-5-0.3-10.2-3.3-14.2c-0.5-0.6-1.3-0.7-1.9-0.3c-0.6,0.5-0.7,1.3-0.3,1.9
			c2.6,3.4,3.6,7.8,2.8,12.1v0l0,0c-0.5,2.4-1.4,4.6-2.9,6.5c-0.5,0.6-0.4,1.5,0.3,1.9c0.3,0.2,0.6,0.3,0.8,0.3
			c0.4,0,0.8-0.2,1.1-0.5C44.5,38.2,45.7,35.6,46.2,32.7L46.2,32.7L46.2,32.7L46.2,32.7L46.2,32.7z"/>
		<path class="st1" d="M40.4,31.8L40.4,31.8c0.7-3.6-0.2-7.4-2.4-10.3c-0.5-0.6-1.3-0.7-1.9-0.3c-0.6,0.5-0.7,1.3-0.3,1.9
			c1.8,2.3,2.4,5.3,1.9,8.1c-0.3,1.6-1,3.1-1.9,4.4c-0.5,0.6-0.4,1.5,0.3,1.9c0.3,0.2,0.5,0.3,0.8,0.3c0.4,0,0.8-0.2,1.1-0.5
			C39.2,35.7,40,33.8,40.4,31.8L40.4,31.8z"/>
		<path class="st1" d="M32.1,24.3c-0.1-0.1-0.2-0.3-0.3-0.4l-0.2-0.3c-0.3-0.5-0.7-0.9-0.9-1.3c-0.3-0.7-0.2-1.6-0.1-2.6
			c0.1-0.7,0.1-1.4,0.1-2.1c-0.5-6.3-4.9-10.5-12-10.9c-4.9-0.3-9.4,1.8-11.9,5.2c-3.5,4.7-3.2,11.7-0.5,15.2
			c2.3,3,3.3,5.7,1.8,14.1c0,0.3,0,0.9,0.8,0.9h12.5c0.6,0,0.8-0.5,0.8-0.8c0-1.7,0.2-3.6,0.8-4c0.4-0.2,0.9-0.3,1.6-0.3
			c0.4,0,0.8,0,1.3,0.1c0.4,0,0.9,0.1,1.3,0.1c1,0,1.6-0.2,2.2-0.5c1.1-0.7,1-2.4,0.9-3.7c0,0,0,0,0.1-0.1c0.2-0.2,0.4-0.4,0.5-0.6
			c0.4-0.5,0.4-1,0.3-1.3c0.2-0.2,0.4-0.5,0.4-0.7h0c0,0,0,0,0-0.1l0-0.1c0-0.3-0.1-0.7-0.2-0.8c-0.1-0.1-0.1-0.2-0.1-0.3
			c0-0.2,0-0.3,0.1-0.5c0,0,0-0.1,0.1-0.1c0.3-0.2,0.9-0.5,0.9-0.5c0.4-0.2,1-0.8,0.8-1.8C32.9,25.4,32.5,24.8,32.1,24.3z"/>
	</g>
</g>
</svg>
